<svg width="683" height="683" viewBox="0 0 683 683" fill="none" xmlns="http://www.w3.org/2000/svg">
<g clip-path="url(#clip0_801_12)">
<path d="M54.8666 86.8C35.9333 89.2 17.1333 102.8 8.46661 120.133C-3.26672 143.6 -0.200053 169.333 16.7333 188.133C21.5333 193.467 56.0666 217.067 168.467 292.133C328.733 398.933 321.533 394.667 342.333 394.667C363.133 394.667 355.933 398.933 516.2 292.133C670.6 189.2 670.333 189.333 677.533 174.133C695.133 137.067 670.067 92 628.867 86.6667C616.867 85.2 66.8666 85.2 54.8666 86.8Z" fill="white"/>
<path d="M1 383.733C1 483.333 1.53333 540.8 2.33333 545.467C7.26667 571.6 29.5333 592.533 55.8 596C68.8667 597.733 615.533 597.733 628.6 596C654.6 592.667 675.667 573.467 681.667 547.6C683.4 540 683.667 518.8 683.4 384.133L683 229.333L536.333 327.067C424.2 401.867 387.4 425.733 380.067 428.533C369.133 432.667 353.133 435.867 342.867 436C331.667 436 314.067 432.4 302.867 427.6C295.267 424.4 251.533 395.867 148.333 327.2C69.1333 274.4 3.53333 230.667 2.73333 230.133C1.4 229.333 1 260.4 1 383.733Z" fill="white"/>
</g>
<defs>
<clipPath id="clip0_801_12">
<rect width="682.667" height="682.667" fill="white"/>
</clipPath>
</defs>
</svg>
