<svg width="342" height="342" viewBox="0 0 342 342" fill="none" xmlns="http://www.w3.org/2000/svg">
<g clip-path="url(#clip0_801_25)">
<path d="M15.3333 2.53336C8.93333 5.46669 4.8 9.73336 2 16.2667C0.266667 20.6667 0 38.8 0 170.933C0 313.6 0.133333 320.933 2.53333 326C5.46667 332.4 9.73333 336.533 16.2667 339.333C20.6667 341.067 38.8 341.333 170.933 341.333C313.6 341.333 320.933 341.2 326 338.8C332.4 335.867 336.533 331.6 339.333 325.067C341.067 320.667 341.333 302.533 341.333 170.667C341.333 38.8 341.067 20.6667 339.333 16.2667C336.533 9.73336 332.4 5.46669 326 2.53336C320.933 0.133356 313.733 2.28882e-05 170.667 2.28882e-05C27.6 2.28882e-05 20.4 0.133356 15.3333 2.53336ZM91.6 51.4667C99.6 56.2667 105.333 66.5334 105.333 76C105.333 85.4667 99.6 95.7334 91.4667 100.667C85.8667 104 83.4667 104.667 76 104.667C63.8667 104.667 55.6 99.7334 50.4 89.4667C36.8 62.6667 65.8667 35.7334 91.6 51.4667ZM244.933 124.533C262 129.067 276.267 140.533 283.2 155.067C290 169.733 290.667 175.867 290.667 235.6V290.667H265.467H240.133L239.733 240.267C239.333 195.333 239.067 189.467 236.933 184.667C226.4 161.467 195.333 162.8 182.267 187.067C179.467 192.533 179.333 193.867 178.933 241.6L178.533 290.667H153.2H128V209.333V128H152H176V138.533V149.2L183.067 142.133C199.333 126 223.867 118.933 244.933 124.533ZM101.333 209.333V290.667H76H50.6667V209.333V128H76H101.333V209.333Z" fill="white"/>
</g>
<defs>
<clipPath id="clip0_801_25">
<rect width="341.333" height="341.333" fill="white"/>
</clipPath>
</defs>
</svg>
