<svg width="1200" height="1200" viewBox="0 0 1200 1200" fill="none" xmlns="http://www.w3.org/2000/svg">
<path d="M761 226.637C744.5 227.701 731.5 210.137 735 197.137C738.532 171.065 761.979 173.427 773.5 174.137C952 185.137 1027.5 321.637 1027.5 437.637C1028 450.137 1021.5 465.637 1000 466.637C982.5 465.137 974.5 452.637 974.5 438.637C969 296.137 840 224.637 761 226.637Z" fill="#5CADEB"/>
<path d="M439.999 974.637C458.5 974.174 470.5 990.137 467 1003.64C462.5 1028.64 441 1028.5 427 1027.64C248 1020.64 174 883.637 173.499 764.136C172.499 745.136 184.499 734.636 199.999 733.636C217.999 733.636 226.999 748.136 226.163 761.136C230.999 893.136 359.999 976.637 439.999 974.637Z" fill="#5CADEB"/>
<path d="M894.5 174.637C878.001 175.701 865 155.637 868.5 142.637C873.5 118.637 895.578 120.477 907.074 121.525C1023.5 132.137 1079.5 224.137 1079.5 304.637C1079.5 304.637 1082.5 330.637 1053 333.137C1039.5 333.137 1028 322.137 1026.5 308.637C1026.5 232.137 973 174.137 894.5 174.637Z" fill="#5CADEB"/>
<path d="M306.5 1027.14C324.5 1025.98 337.501 1044.64 334.001 1057.64C329.001 1081.64 306.027 1079.74 294.5 1079.14C178.488 1073.02 121.086 976.137 121.086 895.637C121.086 895.637 118.086 869.637 147.586 867.137C161.086 867.137 172.586 878.137 174.086 891.637C173 966.137 223 1027.14 306.5 1027.14Z" fill="#5CADEB"/>
<path d="M773.501 341.636C782.001 385.636 813.5 545.136 813.5 545.136C813.5 545.136 800.226 553.665 792.5 560.136C598.5 722.636 744.5 916.136 744.5 916.136C744.5 916.136 729.688 922.332 720.5 919.136C713.317 916.639 705 905.136 705 905.136C575 672.136 776.5 537.636 776.5 537.636L533.5 183.636C533.5 183.636 506 143.136 460.5 172.136C417.5 204.136 448 247.136 448 247.136L645 535.136C636.5 540.136 622.5 548.136 622.5 548.136L414.5 245.136C414.5 245.136 385 194.636 337.5 224.636C288.5 258.636 325.5 304.136 325.5 304.136L533.5 608.5C533.5 608.5 524.5 616 513.5 625.636C513.5 625.636 331.5 355.136 323 350.136C323 350.136 291.5 317.873 253.5 346.636C210 379.563 249 429.136 249 429.136L437 702.636C437 702.636 428 713.136 421 726.136C421 726.136 283.5 523.136 276 516.636C240.5 479.136 204.5 509.636 204.5 509.636C204.5 509.636 164.5 535.636 194 583.636L333 786.136L451 957.136C662 1184.64 888.5 1010.64 888.5 1010.64C888.5 1010.64 1084 883.636 993.5 630.136C953.394 545.444 927.5 468.136 927.5 468.136L876 316.636C876 316.636 859.5 268.636 810 284.636C766.344 298.747 773.501 341.636 773.501 341.636Z" fill="#FFDD5E"/>
<path d="M233 383.136C206.999 421.636 236.001 458.137 236.001 458.137C241.437 467.197 265.88 503.637 265.88 503.637C305.501 553.637 421 726.5 421 726.5C428 714 437.001 702.637 437.001 702.637L251.001 431.137C231.5 408 233 383.136 233 383.136Z" fill="#F09645"/>
<path d="M437.499 210.136C419 237.136 428.501 262 432 271L472 329L622.5 548.136C634.5 541.5 645 535.136 645 535.136L457 260C436 232 437.499 215.637 437.499 210.136Z" fill="#F09645"/>
<path d="M312.501 261.636C287.5 300.5 311 331.5 313.501 335.636L323 350C328.5 352.5 513.501 625.636 513.501 625.636C523.5 617 533.5 608.5 533.5 608.5L326.501 305.636C310 283 312.501 261.636 312.501 261.636Z" fill="#F09645"/>
<path d="M705 905.137C620.5 756.5 665 619 776.5 537.636C782 546.136 786 551.136 792.5 560.136C696 640.5 649.5 761.363 745 916C738.5 919 730 921.5 720 919.137C712 914.636 710 911.5 705 905.137Z" fill="#F09645"/>
</svg>
